<?xml version="1.0" encoding="UTF-8"?>
<!DOCTYPE svg PUBLIC "-//W3C//DTD SVG 1.1//EN" "http://www.w3.org/Graphics/SVG/1.1/DTD/svg11.dtd">
<svg xmlns="http://www.w3.org/2000/svg" version="1.1" width="1200px" height="1200px" style="shape-rendering:geometricPrecision; text-rendering:geometricPrecision; image-rendering:optimizeQuality; fill-rule:evenodd; clip-rule:evenodd" xmlns:xlink="http://www.w3.org/1999/xlink">
<g><path style="opacity:0.99" fill="#30c564" d="M 779.5,247.5 C 659.5,247.5 539.5,247.5 419.5,247.5C 472.099,217.2 526.433,190.034 582.5,166C 593.847,162.7 605.18,162.7 616.5,166C 672.567,190.034 726.901,217.2 779.5,247.5 Z"/></g>
<g><path style="opacity:0.996" fill="#2ec262" d="M 419.5,247.5 C 539.5,247.5 659.5,247.5 779.5,247.5C 822.016,270.581 863.016,295.914 902.5,323.5C 700.5,323.5 498.5,323.5 296.5,323.5C 335.984,295.914 376.984,270.581 419.5,247.5 Z"/></g>
<g><path style="opacity:0.998" fill="#2cc060" d="M 296.5,323.5 C 498.5,323.5 700.5,323.5 902.5,323.5C 926.625,338.785 949.792,355.452 972,373.5C 980.653,384.625 984.819,397.292 984.5,411.5C 908.332,411.167 832.332,411.501 756.5,412.5C 755.146,410.304 753.146,408.804 750.5,408C 723.833,407.333 697.167,407.333 670.5,408C 668.341,409.059 666.674,410.559 665.5,412.5C 628.5,411.167 591.5,411.167 554.5,412.5C 534.037,393.872 513.703,375.039 493.5,356C 487.812,353.48 482.812,354.48 478.5,359C 459.816,376.98 440.816,394.48 421.5,411.5C 352.5,411.5 283.5,411.5 214.5,411.5C 214.181,397.292 218.347,384.625 227,373.5C 249.402,355.721 272.568,339.054 296.5,323.5 Z"/></g>
<g><path style="opacity:1" fill="#fefefe" d="M 554.5,412.5 C 559.816,417.883 559.816,423.383 554.5,429C 547.95,430.42 541.284,430.92 534.5,430.5C 534.5,471.5 534.5,512.5 534.5,553.5C 577.833,553.5 621.167,553.5 664.5,553.5C 664.177,506.458 664.51,459.458 665.5,412.5C 666.674,410.559 668.341,409.059 670.5,408C 697.167,407.333 723.833,407.333 750.5,408C 753.146,408.804 755.146,410.304 756.5,412.5C 757.491,440.759 757.825,469.093 757.5,497.5C 757.5,544.167 757.5,590.833 757.5,637.5C 757.5,648.833 757.5,660.167 757.5,671.5C 757.5,703.833 757.5,736.167 757.5,768.5C 764.284,768.08 770.95,768.58 777.5,770C 781.203,773.396 782.369,777.563 781,782.5C 761.189,801.976 741.022,821.143 720.5,840C 713.543,846.199 706.876,845.865 700.5,839C 681.429,821.051 662.262,803.217 643,785.5C 639.284,779.859 639.784,774.692 644.5,770C 651.05,768.58 657.716,768.08 664.5,768.5C 664.5,727.5 664.5,686.5 664.5,645.5C 621.167,645.5 577.833,645.5 534.5,645.5C 534.667,691.501 534.5,737.501 534,783.5C 533.573,787.527 531.406,790.027 527.5,791C 500.833,791.667 474.167,791.667 447.5,791C 444.337,789.52 442.504,787.02 442,783.5C 441.5,746.168 441.333,708.835 441.5,671.5C 441.5,660.167 441.5,648.833 441.5,637.5C 441.5,590.833 441.5,544.167 441.5,497.5C 441.5,475.167 441.5,452.833 441.5,430.5C 434.716,430.92 428.05,430.42 421.5,429C 416.208,423.168 416.208,417.335 421.5,411.5C 440.816,394.48 459.816,376.98 478.5,359C 482.812,354.48 487.812,353.48 493.5,356C 513.703,375.039 534.037,393.872 554.5,412.5 Z"/></g>
<g><path style="opacity:0.998" fill="#2abc5d" d="M 214.5,411.5 C 283.5,411.5 352.5,411.5 421.5,411.5C 416.208,417.335 416.208,423.168 421.5,429C 428.05,430.42 434.716,430.92 441.5,430.5C 441.5,452.833 441.5,475.167 441.5,497.5C 363.5,497.5 285.5,497.5 207.5,497.5C 208.632,468.715 210.966,440.048 214.5,411.5 Z"/></g>
<g><path style="opacity:1" fill="#2bbc5d" d="M 554.5,412.5 C 591.5,411.167 628.5,411.167 665.5,412.5C 664.51,459.458 664.177,506.458 664.5,553.5C 621.167,553.5 577.833,553.5 534.5,553.5C 534.5,512.5 534.5,471.5 534.5,430.5C 541.284,430.92 547.95,430.42 554.5,429C 559.816,423.383 559.816,417.883 554.5,412.5 Z"/></g>
<g><path style="opacity:0.998" fill="#2abc5d" d="M 984.5,411.5 C 987.936,440.067 990.269,468.733 991.5,497.5C 913.5,497.5 835.5,497.5 757.5,497.5C 757.825,469.093 757.491,440.759 756.5,412.5C 832.332,411.501 908.332,411.167 984.5,411.5 Z"/></g>
<g><path style="opacity:0.999" fill="#27b959" d="M 207.5,497.5 C 285.5,497.5 363.5,497.5 441.5,497.5C 441.5,544.167 441.5,590.833 441.5,637.5C 362.5,637.5 283.5,637.5 204.5,637.5C 204.333,605.832 204.5,574.165 205,542.5C 205.369,527.415 206.202,512.415 207.5,497.5 Z"/></g>
<g><path style="opacity:0.999" fill="#27b959" d="M 757.5,497.5 C 835.5,497.5 913.5,497.5 991.5,497.5C 992.798,512.415 993.631,527.415 994,542.5C 994.5,574.165 994.667,605.832 994.5,637.5C 915.5,637.5 836.5,637.5 757.5,637.5C 757.5,590.833 757.5,544.167 757.5,497.5 Z"/></g>
<g><path style="opacity:0.998" fill="#25b657" d="M 204.5,637.5 C 283.5,637.5 362.5,637.5 441.5,637.5C 441.5,648.833 441.5,660.167 441.5,671.5C 362.833,671.5 284.167,671.5 205.5,671.5C 204.913,660.176 204.58,648.843 204.5,637.5 Z"/></g>
<g><path style="opacity:0.999" fill="#25b657" d="M 757.5,637.5 C 836.5,637.5 915.5,637.5 994.5,637.5C 994.366,648.841 994.033,660.174 993.5,671.5C 914.833,671.5 836.167,671.5 757.5,671.5C 757.5,660.167 757.5,648.833 757.5,637.5 Z"/></g>
<g><path style="opacity:0.998" fill="#22b254" d="M 757.5,671.5 C 836.167,671.5 914.833,671.5 993.5,671.5C 991.787,712.941 988.62,754.274 984,795.5C 982.74,810.187 976.573,822.353 965.5,832C 955.954,839.053 946.287,845.886 936.5,852.5C 711.833,852.5 487.167,852.5 262.5,852.5C 249.217,843.931 236.717,834.264 225,823.5C 218.915,815.169 215.582,805.835 215,795.5C 210.287,754.282 207.121,712.948 205.5,671.5C 284.167,671.5 362.833,671.5 441.5,671.5C 441.333,708.835 441.5,746.168 442,783.5C 442.504,787.02 444.337,789.52 447.5,791C 474.167,791.667 500.833,791.667 527.5,791C 531.406,790.027 533.573,787.527 534,783.5C 534.5,737.501 534.667,691.501 534.5,645.5C 577.833,645.5 621.167,645.5 664.5,645.5C 664.5,686.5 664.5,727.5 664.5,768.5C 657.716,768.08 651.05,768.58 644.5,770C 639.784,774.692 639.284,779.859 643,785.5C 662.262,803.217 681.429,821.051 700.5,839C 706.876,845.865 713.543,846.199 720.5,840C 741.022,821.143 761.189,801.976 781,782.5C 782.369,777.563 781.203,773.396 777.5,770C 770.95,768.58 764.284,768.08 757.5,768.5C 757.5,736.167 757.5,703.833 757.5,671.5 Z"/></g>
<g><path style="opacity:0.997" fill="#1faf50" d="M 262.5,852.5 C 487.167,852.5 711.833,852.5 936.5,852.5C 925.363,861.238 913.696,869.238 901.5,876.5C 700.167,876.5 498.833,876.5 297.5,876.5C 285.279,869.274 273.612,861.274 262.5,852.5 Z"/></g>
<g><path style="opacity:0.994" fill="#1dac4f" d="M 297.5,876.5 C 498.833,876.5 700.167,876.5 901.5,876.5C 810.165,939.353 712.832,992.186 609.5,1035C 596.483,1037.07 584.149,1035.07 572.5,1029C 475.744,986.313 384.078,935.479 297.5,876.5 Z"/></g>
</svg>
