<?xml version="1.0" encoding="UTF-8"?>
<!DOCTYPE svg PUBLIC "-//W3C//DTD SVG 1.1//EN" "http://www.w3.org/Graphics/SVG/1.1/DTD/svg11.dtd">
<svg xmlns="http://www.w3.org/2000/svg" version="1.1" width="2048px" height="2048px" style="shape-rendering:geometricPrecision; text-rendering:geometricPrecision; image-rendering:optimizeQuality; fill-rule:evenodd; clip-rule:evenodd" xmlns:xlink="http://www.w3.org/1999/xlink">
<g><path style="opacity:1" fill="#fefeff" d="M 274.5,-0.5 C 773.833,-0.5 1273.17,-0.5 1772.5,-0.5C 1888.39,15.9617 1971.56,76.6284 2022,181.5C 2034.49,211.801 2042.99,243.134 2047.5,275.5C 2047.5,774.167 2047.5,1272.83 2047.5,1771.5C 2030.64,1891.8 1966.98,1976.63 1856.5,2026C 1828.94,2036.47 1800.61,2043.64 1771.5,2047.5C 1272.83,2047.5 774.167,2047.5 275.5,2047.5C 155.204,2030.64 70.3703,1966.98 21,1856.5C 10.6864,1829.24 3.51978,1801.24 -0.5,1772.5C -0.5,1273.17 -0.5,773.833 -0.5,274.5C 16.7706,154.767 80.4372,70.267 190.5,21C 217.756,10.6864 245.756,3.51978 274.5,-0.5 Z"/></g>
<g><path style="opacity:1" fill="#66d2ff" d="M 697.5,288.5 C 746.665,287.335 795.998,287.168 845.5,288C 846.416,288.278 847.082,288.778 847.5,289.5C 797.523,288.518 747.523,288.185 697.5,288.5 Z"/></g>
<g><path style="opacity:1" fill="#20beff" d="M 697.5,288.5 C 747.523,288.185 797.523,288.518 847.5,289.5C 852.5,291.167 855.833,294.5 857.5,299.5C 857.5,566.167 857.5,832.833 857.5,1099.5C 859.179,1099.71 860.179,1099.05 860.5,1097.5C 976.991,978.842 1093.99,860.675 1211.5,743C 1215.94,739.632 1220.94,737.632 1226.5,737C 1289.5,736.333 1352.5,736.333 1415.5,737C 1426.82,740.807 1430.99,748.64 1428,760.5C 1312.88,872.614 1197.38,984.448 1081.5,1096C 1072.79,1104.38 1064.46,1113.04 1056.5,1122C 1119.02,1194.87 1181.18,1268.04 1243,1341.5C 1297.42,1406.59 1351.09,1472.25 1404,1538.5C 1419.72,1559.22 1435.05,1580.22 1450,1601.5C 1452.19,1608.84 1449.36,1612.84 1441.5,1613.5C 1376.48,1613.82 1311.48,1613.49 1246.5,1612.5C 1238.16,1609.68 1231.33,1604.68 1226,1597.5C 1131.04,1475.38 1035.54,1353.71 939.5,1232.5C 913.152,1258.02 886.652,1283.35 860,1308.5C 859.667,1405.5 859.333,1502.5 859,1599.5C 857.957,1607.54 853.457,1612.38 845.5,1614C 795.833,1614.67 746.167,1614.67 696.5,1614C 690.939,1611.44 687.106,1607.27 685,1601.5C 684.333,1167.83 684.333,734.167 685,300.5C 687.079,294.253 691.246,290.253 697.5,288.5 Z"/></g>
<g><path style="opacity:1" fill="#53cdff" d="M 857.5,299.5 C 858.333,565.666 858.833,832 859,1098.5C 859.383,1097.94 859.883,1097.61 860.5,1097.5C 860.179,1099.05 859.179,1099.71 857.5,1099.5C 857.5,832.833 857.5,566.167 857.5,299.5 Z"/></g>
<g><path style="opacity:1" fill="#6cd4ff" d="M 1246.5,1612.5 C 1311.48,1613.49 1376.48,1613.82 1441.5,1613.5C 1377.67,1614.67 1313.67,1614.83 1249.5,1614C 1248.26,1613.77 1247.26,1613.27 1246.5,1612.5 Z"/></g>
</svg>
